<svg viewBox="0 0 21 20" fill="none" xmlns="http://www.w3.org/2000/svg">
    <path d="M12.9465 10.0558C12.9465 11.666 11.6437 12.9688 10.0335 12.9688C8.4233 12.9688 7.12056 11.666 7.12056 10.0558C7.12056 8.44559 8.4233 7.14285 10.0335 7.14285C11.6437 7.14285 12.9465 8.44559 12.9465 10.0558ZM17.1541 7.14285C15.5439 7.14285 14.2411 8.44559 14.2411 10.0558C14.2411 11.666 15.5439 12.9688 17.1541 12.9688C18.7643 12.9688 20.067 11.666 20.067 10.0558C20.067 8.44559 18.7643 7.14285 17.1541 7.14285ZM2.91296 7.14285C1.30274 7.14285 0 8.44559 0 10.0558C0 11.666 1.30274 12.9688 2.91296 12.9688C4.52317 12.9688 5.82591 11.666 5.82591 10.0558C5.82591 8.44559 4.52317 7.14285 2.91296 7.14285Z"
          fill="currentColor"/>
</svg>
